<?xml version="1.0" encoding="utf-8"?>
<!DOCTYPE svg
  PUBLIC '-//W3C//DTD SVG 1.0//EN'
  'http://www.w3.org/TR/2001/REC-SVG-20010904/DTD/svg10.dtd'>
<svg width="501.27559055118115" height="200" preserveAspectRatio="xMinYMin meet" viewBox="0 0 501 200" xmlns="http://www.w3.org/2000/svg" version="1.0" fill-rule="evenodd" xmlns:xlink="http://www.w3.org/1999/xlink">
	<title>...</title>
	<desc>...</desc>
	<clipPath id="clip">
		<rect x="0" y="0" width="501.27559055118115" height="200"/>
	</clipPath>
	<g id="group" transform="scale(1,-1) translate(0,-200)" style="clip-path: url(#clip)">
		<g transform="">
			<text x="0" y="194" style="font-family: 'Arial Unicode MS', sans-serif; font-size: 9px;fill: rgb(3%,49%,51%); stroke:none;" transform="translate(0,388) scale(1,-1)">指令状態と確認対象 / Workの状態とは別に保持</text>
			<rect x="0" y="141" width="153" height="42" rx="5" ry="5" style="stroke: rgb(3%,49%,51%); stroke-linecap: butt; stroke-width: 0.7; fill: rgb(93%,96%,96%); fill-rule: evenodd;"/>
			<text x="54.0" y="166.0" style="font-family: 'Arial Unicode MS', sans-serif; font-size: 9px;fill: rgb(13%,23%,28%); stroke:none;" transform="translate(0,332) scale(1,-1)">提案を保存</text>
			<text x="51.743408203125" y="152.0" style="font-family: 'Arial Unicode MS', sans-serif; font-size: 9px;fill: rgb(13%,23%,28%); stroke:none;" transform="translate(0,304) scale(1,-1)">PREPARED</text>
			<path d="M 153,162 L 174,162 Z" style="stroke: rgb(3%,49%,51%); stroke-linecap: butt; stroke-width: 1;"/>
			<polygon points="174 162, 169.4978 164.1748, 169.4978 159.8252" style="stroke: none; stroke-linecap: butt; stroke-width: 1; fill: rgb(3%,49%,51%); fill-rule: evenodd;"/>
			<rect x="174" y="141" width="153" height="42" rx="5" ry="5" style="stroke: rgb(3%,49%,51%); stroke-linecap: butt; stroke-width: 0.7; fill: rgb(93%,96%,96%); fill-rule: evenodd;"/>
			<text x="228.0" y="166.0" style="font-family: 'Arial Unicode MS', sans-serif; font-size: 9px;fill: rgb(13%,23%,28%); stroke:none;" transform="translate(0,332) scale(1,-1)">承認を拘束</text>
			<text x="225.492919921875" y="152.0" style="font-family: 'Arial Unicode MS', sans-serif; font-size: 9px;fill: rgb(13%,23%,28%); stroke:none;" transform="translate(0,304) scale(1,-1)">APPROVED</text>
			<path d="M 327,162 L 348,162 Z" style="stroke: rgb(3%,49%,51%); stroke-linecap: butt; stroke-width: 1;"/>
			<polygon points="348 162, 343.4978 164.1748, 343.4978 159.8252" style="stroke: none; stroke-linecap: butt; stroke-width: 1; fill: rgb(3%,49%,51%); fill-rule: evenodd;"/>
			<rect x="348" y="141" width="153" height="42" rx="5" ry="5" style="stroke: rgb(3%,49%,51%); stroke-linecap: butt; stroke-width: 0.7; fill: rgb(93%,96%,96%); fill-rule: evenodd;"/>
			<text x="391.499267578125" y="166.0" style="font-family: 'Arial Unicode MS', sans-serif; font-size: 9px;fill: rgb(13%,23%,28%); stroke:none;" transform="translate(0,332) scale(1,-1)">送信claimを保存</text>
			<text x="379.493408203125" y="152.0" style="font-family: 'Arial Unicode MS', sans-serif; font-size: 9px;fill: rgb(13%,23%,28%); stroke:none;" transform="translate(0,304) scale(1,-1)">DISPATCH_CLAIMED</text>
			<rect x="348" y="63" width="153" height="50" rx="5" ry="5" style="stroke: rgb(3%,49%,51%); stroke-linecap: butt; stroke-width: 0.7; fill: rgb(93%,96%,96%); fill-rule: evenodd;"/>
			<text x="388.5" y="99.0" style="font-family: 'Arial Unicode MS', sans-serif; font-size: 9px;fill: rgb(13%,23%,28%); stroke:none;" transform="translate(0,198) scale(1,-1)">装置が判定・実行</text>
			<text x="369.992431640625" y="85.0" style="font-family: 'Arial Unicode MS', sans-serif; font-size: 9px;fill: rgb(13%,23%,28%); stroke:none;" transform="translate(0,170) scale(1,-1)">ACCEPTED / EXECUTING</text>
			<text x="370.537353515625" y="71.0" style="font-family: 'Arial Unicode MS', sans-serif; font-size: 9px;fill: rgb(13%,23%,28%); stroke:none;" transform="translate(0,142) scale(1,-1)">証拠が一致→SUCCEEDED</text>
			<path d="M 424,141 L 424,113 Z" style="stroke: rgb(3%,49%,51%); stroke-linecap: butt; stroke-width: 1;"/>
			<polygon points="424 113, 426.1748 117.5022, 421.8252 117.5022" style="stroke: none; stroke-linecap: butt; stroke-width: 1; fill: rgb(3%,49%,51%); fill-rule: evenodd;"/>
			<rect x="174" y="63" width="153" height="50" rx="5" ry="5" style="stroke: rgb(3%,49%,51%); stroke-linecap: butt; stroke-width: 0.7; fill: rgb(93%,96%,96%); fill-rule: evenodd;"/>
			<text x="205.001220703125" y="99.0" style="font-family: 'Arial Unicode MS', sans-serif; font-size: 9px;fill: rgb(13%,23%,28%); stroke:none;" transform="translate(0,198) scale(1,-1)">結果不明 / UNKNOWN</text>
			<text x="205.5" y="85.0" style="font-family: 'Arial Unicode MS', sans-serif; font-size: 9px;fill: rgb(13%,23%,28%); stroke:none;" transform="translate(0,170) scale(1,-1)">装置記録・現物を照合</text>
			<text x="203.239013671875" y="71.0" style="font-family: 'Arial Unicode MS', sans-serif; font-size: 9px;fill: rgb(13%,23%,28%); stroke:none;" transform="translate(0,142) scale(1,-1)">executeの自動再送なし</text>
			<path d="M 348,88 L 327,88 Z" style="stroke: rgb(3%,49%,51%); stroke-linecap: butt; stroke-width: 1;"/>
			<polygon points="327 88, 331.5022 85.82517, 331.5022 90.17483" style="stroke: none; stroke-linecap: butt; stroke-width: 1; fill: rgb(3%,49%,51%); fill-rule: evenodd;"/>
			<rect x="0" y="63" width="153" height="50" rx="5" ry="5" style="stroke: rgb(3%,49%,51%); stroke-linecap: butt; stroke-width: 0.7; fill: rgb(93%,96%,96%); fill-rule: evenodd;"/>
			<text x="54.0" y="99.0" style="font-family: 'Arial Unicode MS', sans-serif; font-size: 9px;fill: rgb(13%,23%,28%); stroke:none;" transform="translate(0,198) scale(1,-1)">送信前だけ</text>
			<text x="25.984863281249993" y="85.0" style="font-family: 'Arial Unicode MS', sans-serif; font-size: 9px;fill: rgb(13%,23%,28%); stroke:none;" transform="translate(0,170) scale(1,-1)">EXPIRED / CANCELLED</text>
			<text x="38.99926757812499" y="71.0" style="font-family: 'Arial Unicode MS', sans-serif; font-size: 9px;fill: rgb(13%,23%,28%); stroke:none;" transform="translate(0,142) scale(1,-1)">claim不存在を確認</text>
			<path d="M 76,141 L 76,113 Z" style="stroke: rgb(3%,49%,51%); stroke-linecap: butt; stroke-width: 1;"/>
			<polygon points="76 113, 78.17483 117.5022, 73.82517 117.5022" style="stroke: none; stroke-linecap: butt; stroke-width: 1; fill: rgb(3%,49%,51%); fill-rule: evenodd;"/>
			<text x="0" y="36" style="font-family: 'Arial Unicode MS', sans-serif; font-size: 9px;fill: rgb(13%,23%,28%); stroke:none;" transform="translate(0,72) scale(1,-1)">拒否・確認済み失敗は理由付きで記録。受理・設定保存・物理作用を区別する。</text>
			<text x="0" y="16" style="font-family: 'Arial Unicode MS', sans-serif; font-size: 9px;fill: rgb(3%,49%,51%); stroke:none;" transform="translate(0,32) scale(1,-1)">過去receiptだけで現在状態を証明しない。UNKNOWN中のWorkはactiveの照合待ち。</text>
		</g>
	</g>
</svg>
